<svg width="16" height="16" viewBox="0 0 16 16" fill="none" xmlns="http://www.w3.org/2000/svg">
<path d="M7.1869 5.3332L7.49423 8.66654H8.50463L8.81196 5.3332H7.1869ZM7.99943 9.33321C7.86756 9.33321 7.7387 9.37228 7.62903 9.44554C7.51943 9.51881 7.43396 9.62294 7.3835 9.74474C7.33303 9.86654 7.31983 10.0006 7.34556 10.1299C7.3713 10.2593 7.43476 10.378 7.52803 10.4713C7.62123 10.5645 7.74003 10.628 7.86936 10.6537C7.9987 10.6795 8.13276 10.6663 8.25456 10.6158C8.37636 10.5653 8.4805 10.4799 8.55376 10.3703C8.62696 10.2606 8.6661 10.1317 8.6661 9.99988C8.6661 9.82308 8.59583 9.65348 8.47083 9.52848C8.34583 9.40341 8.17623 9.33321 7.99943 9.33321ZM13.1849 4.69987L12.242 3.7572C11.4846 2.99789 10.5373 2.45575 9.49896 2.18736C8.46063 1.91898 7.3693 1.93419 6.33885 2.2314C5.3084 2.52861 4.37659 3.09693 3.64067 3.87706C2.90475 4.65718 2.39169 5.62052 2.15503 6.66654H3.53503C3.76492 5.8923 4.19208 5.1911 4.77464 4.6317C5.35719 4.0723 6.07514 3.67391 6.85803 3.4756C7.64096 3.2773 8.46203 3.28588 9.24063 3.5005C10.0192 3.71512 10.7287 4.12842 11.2994 4.69987L12.2424 5.64254L11.2794 6.60527H14.1471V3.7376L13.1849 4.69987ZM11.2994 11.2999C10.4242 12.175 9.2373 12.6667 7.99963 12.6667C6.76196 12.6667 5.575 12.175 4.69983 11.2999L3.7569 10.3572L4.71943 9.39448H1.85156V12.2621L2.81396 11.2999L3.7569 12.2425C4.51426 13.0019 5.46154 13.544 6.49988 13.8124C7.53823 14.0807 8.62956 14.0655 9.66003 13.7683C10.6904 13.4711 11.6223 12.9028 12.3582 12.1227C13.0941 11.3425 13.6072 10.3792 13.8438 9.33321H12.4638C12.2468 10.076 11.8464 10.7523 11.2994 11.2999Z" fill="black"/>
</svg>
