<svg width="64" height="64" viewBox="0 0 64 64" fill="none" xmlns="http://www.w3.org/2000/svg">
<rect width="64" height="64" rx="32" fill="#0A40FF"/>
<path d="M15.1955 24.5V39H17.0955V33.42H18.7555C21.9355 33.42 24.3755 32.56 24.3755 28.96C24.3755 25.36 21.9355 24.5 18.7555 24.5H15.1955ZM18.9955 26.3C20.9355 26.3 22.4155 26.6 22.4155 28.96C22.4155 31.32 20.9355 31.62 18.9955 31.62H17.0955V26.3H18.9955ZM35.3252 39H37.4852L34.4052 32.52C35.9852 32.02 37.0252 30.9 37.0252 28.64C37.0252 25.18 34.5852 24.5 31.4252 24.5H27.8852V39H29.7852V32.9H31.4252C31.7852 32.9 32.1452 32.9 32.4852 32.88L35.3252 39ZM31.6452 26.3C33.5652 26.3 35.0652 26.44 35.0652 28.68C35.0652 30.92 33.5652 31.1 31.6452 31.1H29.7852V26.3H31.6452ZM45.0949 24.24C41.4749 24.24 39.6749 27.36 39.6749 31.74C39.6749 36.1 41.4749 39.26 45.0949 39.26C48.7149 39.26 50.5149 36.1 50.5149 31.74C50.5149 27.36 48.7149 24.24 45.0949 24.24ZM45.0949 26C47.4949 26 48.5549 28.08 48.5549 31.74C48.5549 35.4 47.4949 37.5 45.0949 37.5C42.7149 37.5 41.6349 35.4 41.6349 31.74C41.6349 28.08 42.7149 26 45.0949 26Z" fill="white"/>
</svg>
