<svg width="20" height="23" viewBox="0 0 20 23" fill="none" xmlns="http://www.w3.org/2000/svg">
<path d="M9.99984 9.66683C10.9228 9.66683 11.8251 9.39314 12.5925 8.88036C13.36 8.36757 13.9581 7.63874 14.3113 6.78603C14.6645 5.9333 14.7569 4.99498 14.5768 4.08974C14.3968 3.1845 13.9523 2.35297 13.2996 1.70033C12.647 1.04768 11.8155 0.60323 10.9103 0.423167C10.005 0.243104 9.06674 0.335516 8.21402 0.688724C7.36126 1.04193 6.63243 1.64007 6.11964 2.4075C5.60687 3.17494 5.33317 4.07719 5.33317 5.00016C5.33456 6.23741 5.82667 7.4236 6.70154 8.29846C7.57641 9.17333 8.76259 9.66544 9.99984 9.66683ZM9.99984 2.66683C10.4614 2.66683 10.9124 2.80368 11.2961 3.06007C11.6798 3.31647 11.979 3.68087 12.1556 4.10723C12.3321 4.5336 12.3783 5.00275 12.2884 5.45537C12.1983 5.90799 11.9761 6.32376 11.6497 6.65009C11.3234 6.9764 10.9076 7.19863 10.4551 7.28866C10.0024 7.37869 9.53329 7.33249 9.10687 7.15588C8.68057 6.97929 8.3161 6.68021 8.05979 6.29649C7.80335 5.91278 7.6665 5.46165 7.6665 5.00016C7.6672 4.38155 7.91325 3.78846 8.35075 3.35103C8.78814 2.9136 9.38127 2.66754 9.99984 2.66683ZM18.9913 15.7383C16.6049 13.357 13.3712 12.0195 9.99984 12.0195C6.62849 12.0195 3.39481 13.357 1.00834 15.7383L0.666504 16.0801V22.5002H19.3332V16.0801L18.9913 15.7383ZM16.9998 20.1668H2.99984V17.0615C4.91463 15.3187 7.41068 14.3529 9.99984 14.3529C12.589 14.3529 15.0851 15.3187 16.9998 17.0615V20.1668Z" fill="black"/>
</svg>
