<svg width="16" height="16" viewBox="0 0 16 16" fill="none" xmlns="http://www.w3.org/2000/svg">
<path d="M12.6905 4.20489L12.2425 3.75709C11.4848 2.9982 10.5373 2.45646 9.499 2.18834C8.46067 1.92022 7.3694 1.93555 6.33894 2.23271C5.30852 2.52988 4.37667 3.098 3.64053 3.87787C2.9044 4.65774 2.39094 5.62078 2.15367 6.66662H3.52667C3.75761 5.89207 4.18574 5.19076 4.76913 4.63136C5.35251 4.07196 6.07117 3.67364 6.85473 3.4754C7.63827 3.27716 8.45993 3.28578 9.23913 3.50044C10.0183 3.7151 10.7285 4.12843 11.3 4.69996L11.7479 5.14756L10.2287 6.66662H14V2.89536L12.6905 4.20489ZM11.3 11.3C10.4248 12.1751 9.23787 12.6668 8.0002 12.6668C6.76253 12.6668 5.57557 12.1751 4.7004 11.3C4.55172 11.149 4.41339 10.9881 4.28633 10.8186L5.77127 9.33332H2V13.1046L3.33413 11.7705C3.46695 11.9351 3.60825 12.0926 3.75747 12.2425C4.51515 13.0015 5.46258 13.5434 6.50098 13.8117C7.5394 14.0799 8.63073 14.0646 9.6612 13.7675C10.6917 13.4703 11.6237 12.9022 12.3598 12.1223C13.096 11.3423 13.6095 10.3792 13.8467 9.33332H12.4733C12.2526 10.0765 11.8492 10.7527 11.3 11.3Z" fill="black"/>
</svg>
