<svg width="20" height="20" viewBox="0 0 20 20" fill="none" xmlns="http://www.w3.org/2000/svg">
<path d="M9.9997 0.00012207C8.0219 0.00012207 6.08849 0.586612 4.444 1.68542C2.79951 2.78424 1.51779 4.34602 0.760906 6.17329C0.00402558 8.00052 -0.194004 10.0112 0.191846 11.951C0.577696 13.8908 1.53011 15.6726 2.92864 17.0712C4.32716 18.4697 6.10899 19.4221 8.0488 19.808C9.9886 20.1938 11.9993 19.9958 13.8265 19.2389C15.6538 18.482 17.2156 17.2003 18.3144 15.5558C19.4132 13.9113 19.9997 11.9779 19.9997 10.0001C19.9997 8.68692 19.741 7.38654 19.2385 6.17329C18.736 4.96003 17.9994 3.85764 17.0708 2.92905C16.1422 2.00047 15.0398 1.26387 13.8265 0.761322C12.6133 0.258782 11.3129 0.00012207 9.9997 0.00012207ZM9.9997 18.0001C8.4175 18.0001 6.87074 17.5309 5.55514 16.6519C4.23955 15.7728 3.21417 14.5234 2.60867 13.0616C2.00317 11.5998 1.84474 9.99122 2.15342 8.43942C2.4621 6.88755 3.22403 5.46209 4.34285 4.34327C5.46167 3.22445 6.88713 2.46252 8.439 2.15384C9.9908 1.84516 11.5994 2.00358 13.0612 2.60908C14.523 3.21459 15.7724 4.23996 16.6515 5.55556C17.5305 6.87115 17.9997 8.41782 17.9997 10.0001C17.9973 12.1211 17.1537 14.1545 15.6539 15.6543C14.1541 17.1541 12.1207 17.9977 9.9997 18.0001ZM5.0497 9.29312L6.4638 10.7071L8.9997 8.17152V15.0001H10.9997V8.17152L13.5353 10.7071L14.9497 9.29312L9.9997 4.34342L5.0497 9.29312Z" fill="white"/>
</svg>
